# xmcd
# 
# Track frame offsets:
#     150
#     28005
#     52615
#     68884
# 
# Disc length: 1075
# 
# Revision: 0
# Processed by: cddbd v1.5.2PL0 Copyright (c) Steve Scherf et al.
# Submitted via: fre:ac v1.0.17
# 
DISCID=29043104
DTITLE=The Sea of Cortez - Testing The Waters EP
DYEAR=0
DGENRE=Alternative
TTITLE0=The Shores
TTITLE1=The Shores (The Sea of Cortez Remix)
TTITLE2=Hight and Low
TTITLE3=Telephonic
EXTD=
EXTT0=
EXTT1=
EXTT2=
EXTT3=
PLAYORDER=
